<svg xmlns="http://www.w3.org/2000/svg" viewBox="0 0 60 60"><defs><style>.cls-1,.cls-2{fill:#fff;}.cls-2{stroke:#000;stroke-miterlimit:10;}</style></defs><g id="Слой_2" data-name="Слой 2"><g id="Слой_1-2" data-name="Слой 1"><rect class="cls-1" x="0.5" y="0.5" width="59" height="59" rx="3.53"/><path d="M56,1a3,3,0,0,1,3,3V56a3,3,0,0,1-3,3H4a3,3,0,0,1-3-3V4A3,3,0,0,1,4,1H56m0-1H4A4,4,0,0,0,0,4V56a4,4,0,0,0,4,4H56a4,4,0,0,0,4-4V4a4,4,0,0,0-4-4Z"/><path class="cls-1" d="M36.79,48.6a3.54,3.54,0,0,1-3.06-1.76l-6-10.34a3.53,3.53,0,0,1,1.29-4.82l10.34-6A3.51,3.51,0,0,1,44.21,27l6,10.34a3.51,3.51,0,0,1-1.29,4.82l-10.34,6A3.54,3.54,0,0,1,36.79,48.6Z"/><path d="M41.15,25.73h0a3,3,0,0,1,2.63,1.52l6,10.34a3,3,0,0,1-1.11,4.14l-10.34,6a3,3,0,0,1-4.14-1.11l-6-10.34a3,3,0,0,1,1.11-4.14l10.34-6a3,3,0,0,1,1.51-.41m0-1a4.1,4.1,0,0,0-2,.54l-10.34,6a4,4,0,0,0-1.47,5.51l6,10.34a4,4,0,0,0,3.49,2,4,4,0,0,0,2-.55l10.34-6a4,4,0,0,0,1.48-5.5l-6-10.34a4.06,4.06,0,0,0-3.5-2Z"/><path class="cls-2" d="M8.89,58.25,16,44.47a.51.51,0,0,1,.93,0l5.83,13.78a.51.51,0,0,1-.47.71H9.34A.51.51,0,0,1,8.89,58.25Z"/></g></g></svg>