<svg xmlns="http://www.w3.org/2000/svg" viewBox="0 0 60 60"><defs><style>.cls-1,.cls-2{fill:#fff;}.cls-2{stroke:#000;stroke-miterlimit:10;}</style></defs><g id="Слой_2" data-name="Слой 2"><g id="Слой_1-2" data-name="Слой 1"><circle class="cls-1" cx="30" cy="30" r="29.5"/><path d="M30,1A29,29,0,1,1,1,30,29,29,0,0,1,30,1m0-1A30,30,0,0,0,0,30H0a30,30,0,0,0,60,0h0A30,30,0,0,0,30,0Z"/><path class="cls-1" d="M41.79,48.6a3.54,3.54,0,0,1-3.06-1.76l-6-10.34a3.53,3.53,0,0,1,1.29-4.82l10.34-6A3.51,3.51,0,0,1,49.21,27l6,10.34a3.51,3.51,0,0,1-1.29,4.82l-10.34,6A3.54,3.54,0,0,1,41.79,48.6Z"/><path d="M46.15,25.73h0a3,3,0,0,1,2.63,1.52l6,10.34a3,3,0,0,1-1.11,4.14l-10.34,6a3,3,0,0,1-4.14-1.11l-6-10.34a3,3,0,0,1,1.11-4.14l10.34-6a3,3,0,0,1,1.51-.41m0-1a4.1,4.1,0,0,0-2,.54l-10.34,6a4,4,0,0,0-1.47,5.51l6,10.34a4,4,0,0,0,3.49,2,4,4,0,0,0,2-.55l10.34-6a4,4,0,0,0,1.48-5.5l-6-10.34a4.06,4.06,0,0,0-3.5-2Z"/><path class="cls-2" d="M8.36,49.21l13.56-7.53a.51.51,0,0,1,.75.54L19.89,56.93a.52.52,0,0,1-.79.33L8.32,50.09A.52.52,0,0,1,8.36,49.21Z"/></g></g></svg>